# xmcd
#
# Track frame offsets:
#	150
#	13440
#	27817
#	36205
#	46999
#	62690
#
# Disc length: 1024 seconds
#
# Revision: 1
# Processed by: cddbd v1.4PL0 Copyright (c) Steve Scherf et al.
# Submitted via: EasyCDDAExtractor 5.0.6
#
DISCID=4903fe06
DTITLE=Jack Rose - Dr. Ragtime (tequila sunrise)
DYEAR=2002
DGENRE=blues
TTITLE0=teoc
TTITLE1=gage blues
TTITLE2=old country rock (bill moore)
TTITLE3=buckdancer's choice (sam mcgee)
TTITLE4=knoxville blues (sam mcgee)
TTITLE5=flirtin' with the undertaker
EXTD=
EXTT0=
EXTT1=
EXTT2=
EXTT3=
EXTT4=
EXTT5=
PLAYORDER=
